<svg xml:space="preserve" style="enable-background:new 0 0 80 80;" viewBox="0 0 80 80" y="0px" x="0px" xmlns:xlink="http://www.w3.org/1999/xlink" xmlns="http://www.w3.org/2000/svg" id="Layer_1" version="1.1">
<path d="M49.6,79.7L49.6,79.7c-1.1,0-2.2-0.3-3.2-0.9l-4.6-2.7c-1.2-0.7-2.6-0.7-3.8,0l-4.6,2.7
	c-3,1.7-6.7,0.7-8.5-2.2c-0.1-0.1-0.1-0.2-0.2-0.3l-2.4-4.7c-0.6-1.2-1.8-2-3.2-2.1l-5.3-0.2c-3.4-0.1-6.1-3-5.9-6.5
	c0-0.1,0-0.2,0-0.4l0.5-5.3c0.1-1.4-0.5-2.7-1.6-3.5l-4.3-3.1c-2.8-2-3.5-5.8-1.5-8.6c0.1-0.1,0.1-0.2,0.2-0.3l3.4-4.2l0,0
	c0.8-1.1,1-2.5,0.5-3.7l-2-4.9c-1.3-3.2,0.2-6.8,3.4-8.1c0.1,0,0.2-0.1,0.3-0.1l5-1.7c1.3-0.4,2.3-1.5,2.5-2.9l1-5.2
	c0.6-3.4,3.9-5.6,7.2-5c0.1,0,0.2,0,0.3,0.1l5.2,1.3c0.3,0.1,0.6,0.1,0.9,0.1c1,0,2-0.4,2.7-1.2l3.6-3.9c2.4-2.5,6.3-2.6,8.8-0.3
	c0.1,0.1,0.2,0.2,0.3,0.3l3.6,3.8c0.7,0.8,1.7,1.2,2.7,1.2c0.3,0,0.6,0,0.9-0.1L57,5.9c3.3-0.8,6.7,1.2,7.5,4.5
	c0,0.1,0.1,0.2,0.1,0.4l1,5.2c0.3,1.3,1.2,2.4,2.5,2.9l5,1.7c3.2,1.1,5,4.6,3.9,7.9c0,0.1-0.1,0.2-0.1,0.4l-2,4.9
	c-0.5,1.3-0.3,2.7,0.5,3.8l3.3,4.2c2.1,2.7,1.7,6.6-1,8.7c0,0-0.1,0.1-0.1,0.1L73,53.7c-1.1,0.8-1.7,2.1-1.6,3.5l0.5,5.3
	c0.3,3.4-2.1,6.4-5.5,6.8c-0.1,0-0.2,0-0.4,0l-5.3,0.2c-1.4,0.1-2.6,0.8-3.2,2.1l-2.4,4.8c-0.8,1.5-2.1,2.7-3.8,3.1
	C50.8,79.6,50.2,79.7,49.6,79.7z M40,73.1c1,0,2.1,0.3,3,0.8l4.7,2.8c0.6,0.3,1.2,0.5,1.9,0.5c0.4,0,0.7-0.1,1.1-0.2
	c1-0.3,1.8-1,2.3-1.9l2.4-4.7c1-2,3.1-3.3,5.3-3.4v-0.1l0,0.1l5.3-0.2c2.1-0.1,3.7-1.8,3.6-3.9c0-0.1,0-0.2,0-0.2L69,57.3
	c-0.2-2.2,0.8-4.4,2.6-5.7l4.3-3.1c0.8-0.6,1.4-1.5,1.6-2.5v0c0.1-1-0.2-2.1-0.9-2.9L73.4,39c-1.3-1.7-1.7-3.9-1-6l2.1-5.1
	c0.4-1,0.4-2,0-3c-0.4-0.9-1.2-1.7-2.2-2l-5-1.7c-2-0.7-3.6-2.4-4.1-4.5l-1-5.5c-0.4-2-2.4-3.4-4.4-3c-0.1,0-0.1,0-0.2,0l-5.2,1.3
	c-2.2,0.5-4.5-0.1-6-1.8l-3.6-3.9l0,0c-1.5-1.5-3.9-1.5-5.4-0.1c0,0,0,0-0.1,0.1l-3.7,3.9c-1.5,1.6-3.8,2.3-6,1.8l-5.2-1.3
	c-2-0.5-4.1,0.7-4.6,2.7c0,0.1,0,0.1,0,0.2l-1,5.2c-0.4,2.2-1.9,3.9-4,4.7l-5.1,1.7c-1,0.3-1.8,1.1-2.2,2c-0.4,0.9-0.5,2-0.1,3
	l2,4.9c0.8,2.1,0.5,4.4-0.9,6.2l-3.3,4.2c-1.3,1.6-1,4,0.6,5.3c0.1,0,0.1,0.1,0.2,0.1l4.4,3.1c1.8,1.3,2.8,3.5,2.6,5.7l-0.5,5.3
	c-0.2,2.1,1.3,3.9,3.4,4.1c0.1,0,0.1,0,0.2,0l5.3,0.2c2.3,0.1,4.3,1.4,5.3,3.4l2.4,4.7c0.9,1.9,3.2,2.6,5.1,1.7
	c0.1,0,0.1-0.1,0.2-0.1l4.6-2.7C37.8,73.4,38.9,73.1,40,73.1z M40,65.3c-14-0.1-25.3-11.4-25.2-25.4C14.8,26,26,14.7,39.9,14.6H40
	c14,0.1,25.3,11.5,25.2,25.5C65.1,54,53.9,65.2,40,65.3z M40,17C27.3,17,17.1,27.3,17.1,40S27.3,62.9,40,62.9h0
	c12.7,0,22.9-10.3,22.9-22.9S52.7,17,40,17L40,17L40,17z M38,49h-0.2c-0.3,0-0.6-0.1-0.8-0.3l-6.4-6.2c-0.5-0.5-0.5-1.2-0.1-1.7
	c0.5-0.5,1.2-0.5,1.7-0.1c0,0,0,0,0,0l5.4,5.2l10-14.5c0.4-0.6,1.1-0.7,1.7-0.3c0.6,0.4,0.7,1.1,0.3,1.7L49.5,33v0L38.8,48.5
	C38.6,48.8,38.3,49,38,49L38,49z" id="Path_19144"></path>
</svg>
