<svg viewBox="0 0 84.032 73.826" height="73.826" width="84.032" xmlns:xlink="http://www.w3.org/1999/xlink" xmlns="http://www.w3.org/2000/svg">
  <defs>
    <clipPath id="clip-path">
      <rect height="27.227" width="36.289" data-sanitized-data-name="Rectangle 4335" data-name="Rectangle 4335" id="Rectangle_4335"></rect>
    </clipPath>
  </defs>
  <g transform="translate(-10695 -774)" data-sanitized-data-name="Group 4047" data-name="Group 4047" id="Group_4047">
    <g transform="translate(-114.664 -11.851)" data-sanitized-data-name="Group 4018" data-name="Group 4018" id="Group_4018">
      <path transform="translate(10809.664 820.398)" d="M42.131,39.278a37.058,37.058,0,0,1-6.58-.591A36.979,36.979,0,0,1,5.394,5.745L5.275,4.439,1.95,9.006l-.02.029a1.038,1.038,0,0,1-.885.492c-.028,0-.056,0-.085,0A1.044,1.044,0,0,1,.246,7.811L5.6.429A1.032,1.032,0,0,1,6.434,0,1.045,1.045,0,0,1,7.27.459L12.253,7.84l.034.044a1.044,1.044,0,0,1-.77,1.721h-.024a1.041,1.041,0,0,1-.932-.573L10.547,9,8.4,5.831l-.9.329A34.816,34.816,0,0,0,25.486,33.015,34.732,34.732,0,0,0,36.2,36.728a35.053,35.053,0,0,0,5.906.5A34.8,34.8,0,0,0,73.461,17.5a1.042,1.042,0,0,1,1.879.9A37.064,37.064,0,0,1,42.131,39.278Z" data-sanitized-data-name="Subtraction 6" data-name="Subtraction 6" id="Subtraction_6"></path>
      <path transform="translate(10816.302 785.85)" d="M71.4,43.945h0a1.07,1.07,0,0,1-.849-.432l-5.331-7.342a1.047,1.047,0,0,1,.845-1.663,1.051,1.051,0,0,1,.846.429l3.335,4.6V36.987a34.8,34.8,0,0,0-68.2-9.848,1.043,1.043,0,1,1-2-.584A36.885,36.885,0,0,1,72.334,36.986v2.726l3.186-4.7a1.058,1.058,0,0,1,.87-.456,1.041,1.041,0,0,1,.574.173,1.053,1.053,0,0,1,.259,1.422l-4.98,7.337A1.044,1.044,0,0,1,71.4,43.945Z" data-sanitized-data-name="Subtraction 5" data-name="Subtraction 5" id="Subtraction_5"></path>
    </g>
    <g transform="translate(-114.664 -11.851)" data-sanitized-data-name="Group 4045" data-name="Group 4045" id="Group_4045">
      <path transform="translate(10809.664 820.398)" d="M42.131,39.278a37.058,37.058,0,0,1-6.58-.591A36.979,36.979,0,0,1,5.394,5.745L5.275,4.439,1.95,9.006l-.02.029a1.038,1.038,0,0,1-.885.492c-.028,0-.056,0-.085,0A1.044,1.044,0,0,1,.246,7.811L5.6.429A1.032,1.032,0,0,1,6.434,0,1.045,1.045,0,0,1,7.27.459L12.253,7.84l.034.044a1.044,1.044,0,0,1-.77,1.721h-.024a1.041,1.041,0,0,1-.932-.573L10.547,9,8.4,5.831l-.9.329A34.816,34.816,0,0,0,25.486,33.015,34.732,34.732,0,0,0,36.2,36.728a35.053,35.053,0,0,0,5.906.5A34.8,34.8,0,0,0,73.461,17.5a1.042,1.042,0,0,1,1.879.9A37.064,37.064,0,0,1,42.131,39.278Z" data-sanitized-data-name="Subtraction 6" data-name="Subtraction 6" id="Subtraction_6-2"></path>
      <path transform="translate(10816.302 785.85)" d="M71.4,43.945h0a1.07,1.07,0,0,1-.849-.432l-5.331-7.342a1.047,1.047,0,0,1,.845-1.663,1.051,1.051,0,0,1,.846.429l3.335,4.6V36.987a34.8,34.8,0,0,0-68.2-9.848,1.043,1.043,0,1,1-2-.584A36.885,36.885,0,0,1,72.334,36.986v2.726l3.186-4.7a1.058,1.058,0,0,1,.87-.456,1.041,1.041,0,0,1,.574.173,1.053,1.053,0,0,1,.259,1.422l-4.98,7.337A1.044,1.044,0,0,1,71.4,43.945Z" data-sanitized-data-name="Subtraction 5" data-name="Subtraction 5" id="Subtraction_5-2"></path>
    </g>
    <g transform="translate(10718.872 799.182)" data-sanitized-data-name="Group 4042" data-name="Group 4042" id="Group_4042">
      <g clip-path="url(#clip-path)" data-sanitized-data-name="Group 4042" data-name="Group 4042" id="Group_4042-2">
        <path transform="translate(0 0)" d="M14.49,23.621A4.683,4.683,0,0,1,10,27.227,4.7,4.7,0,0,1,5.5,23.6H2.91A.951.951,0,0,1,1.82,22.5q0-2.935,0-5.87c0-.4-.007-.8,0-1.193a.933.933,0,0,1,.926-.979.958.958,0,0,1,.965.984c.01,1.276,0,2.553,0,3.83,0,.793,0,1.586,0,2.422.576,0,1.127.008,1.676-.011.067,0,.163-.139.188-.23a4.5,4.5,0,0,1,2.509-2.966,4.565,4.565,0,0,1,6.272,2.791l.124.4h5.408V1.891h-.4q-9.166,0-18.333,0A1.142,1.142,0,0,1,.231,1.54.871.871,0,0,1,.068.6.867.867,0,0,1,.84.008C.923,0,1.007,0,1.09,0H20.71a.942.942,0,0,1,1.047.657A1.254,1.254,0,0,1,21.8,1c.006.249,0,.5,0,.8h.414c2.459,0,4.918.011,7.377-.008a1.344,1.344,0,0,1,1.3.736c1.7,2.867,3.427,5.715,5.127,8.581a1.89,1.89,0,0,1,.258.911c.018,3.464.012,6.927.011,10.391a2.549,2.549,0,0,1-.017.313.918.918,0,0,1-.987.88q-1.224,0-2.449,0c-.176,0-.264.03-.321.235a4.571,4.571,0,0,1-7.608,2.089,4.239,4.239,0,0,1-1.224-2.079c-.039-.16-.094-.247-.287-.247Q19,23.605,14.6,23.6a.833.833,0,0,0-.114.019M34.357,12.778H21.823V21.7c.5,0,.977-.014,1.455.006.252.01.355-.061.422-.32a4.583,4.583,0,0,1,8.826.085c.025.087.124.215.193.217.54.018,1.081.01,1.639.01ZM21.829,3.693v7.115H33.624c-.048-.091-.075-.145-.106-.2Q31.5,7.254,29.492,3.9a.42.42,0,0,0-.44-.2q-3.451,0-6.9,0Zm6.279,16.29a2.666,2.666,0,0,0-.006,5.332,2.666,2.666,0,0,0,.006-5.332M12.646,22.632a2.643,2.643,0,0,0-2.681-2.647,2.662,2.662,0,1,0,.069,5.324,2.614,2.614,0,0,0,2.612-2.677" data-sanitized-data-name="Path 19145" data-name="Path 19145" id="Path_19145"></path>
        <path transform="translate(-27.212 -107.93)" d="M33.589,115.162h3.547a.946.946,0,1,1-.008,1.886q-3.532,0-7.063,0a.947.947,0,1,1,.008-1.886h3.516" data-sanitized-data-name="Path 19146" data-name="Path 19146" id="Path_19146"></path>
      </g>
    </g>
  </g>
</svg>
