<svg xml:space="preserve" style="enable-background:new 0 0 80 80;" viewBox="0 0 80 80" y="0px" x="0px" xmlns:xlink="http://www.w3.org/1999/xlink" xmlns="http://www.w3.org/2000/svg" id="Layer_1" version="1.1">
<style type="text/css">
	.st0{stroke:#000000;stroke-width:0.5;stroke-miterlimit:10;}
</style>
<g>
	<g transform="translate(19.393 19.395)" id="COD">
		<path d="M22.5,42.4c-2.6-0.7-5-1.8-7.2-3.2c-0.7-0.4-1.5-0.7-2.3-0.9h-0.4c-0.2,0.9-0.3,1.1-1.3,1.1H9.4V40
			c0,0.4-0.3,0.8-0.7,0.8H8.6c-1.6,0-3.3,0-4.9,0c-0.4,0-0.8-0.3-0.8-0.7V40c0-3.5,0-6.9,0-10.4c0-0.6,0.3-0.9,1-0.9H11
			c0.2,0,0.5-0.1,0.6-0.3c0.8-1.2,2-2.1,3.4-2.5c2.4-0.7,5,0,6.6,1.9c0.2,0.2,0.3,0.3,0.6,0.4c1.8,0.6,3.6,1.2,5.5,1.9
			c1.3,0.3,2.4,1.2,2.9,2.5l3.2-0.9c1-0.3,1.9-0.5,2.9-0.8c1.6-0.6,3.4,0.1,4.2,1.6c0.6,1.1,0.5,2.5-0.3,3.5c-0.5,0.6-1.2,1.1-2,1.4
			c-4.3,1.5-8.6,3.1-12.9,4.6c-0.5,0.2-1.1,0.3-1.6,0.4H22.5z M15.7,27.4c-1.3,0.3-2.5,1.2-3.1,2.4c-0.1,0.1-0.1,0.3-0.1,0.5
			c0,1.9,0,3.8,0,5.7v0.6c1.4,0.1,2.8,0.5,4,1.4c0.5,0.3,1,0.6,1.5,0.8c1,0.5,2,1,3.1,1.5c1.5,0.6,3.1,0.5,4.5-0.1
			c4.1-1.5,8.2-2.9,12.2-4.4c0.5-0.2,1-0.5,1.3-1c0.5-0.7,0.4-1.7-0.3-2.2c-0.2-0.2-0.5-0.3-0.7-0.3c-0.4,0-0.7,0-1.1,0.1
			c-2,0.5-4,1.1-6,1.7c-0.3,0-0.5,0.2-0.5,0.5c-0.5,1.6-2.2,2.6-3.9,2.1c-2.5-0.7-5-1.6-7.5-2.4c-0.3-0.1-0.5-0.3-0.6-0.6
			c-0.1-0.4,0.1-0.9,0.5-1c0.2-0.1,0.4-0.1,0.5,0c1.1,0.3,2.2,0.7,3.3,1.1c1.3,0.4,2.6,0.8,3.9,1.2c0.7,0.3,1.5,0,1.9-0.7
			s0.3-1.5-0.3-2c-0.3-0.3-0.7-0.5-1.1-0.6c-2-0.7-4-1.4-6-2.1c-0.3-0.1-0.6-0.3-0.8-0.5c-0.9-1.1-2.2-1.8-3.7-1.8
			C16.4,27.3,16.1,27.3,15.7,27.4L15.7,27.4z M4.5,30.4v8.8h3.2V34c0-1.1,0-2.2,0-3.3c0-0.1-0.1-0.3-0.2-0.3c-0.6,0-1.2,0-1.7,0
			L4.5,30.4z M9.4,37.6h1.4v-7.2H9.4V37.6z M16.3,33.4c-0.4,0-0.8-0.4-0.8-0.9c0-0.4,0.4-0.8,0.8-0.8l0,0c0.4,0,0.8,0.4,0.8,0.8
			C17.1,33.1,16.8,33.4,16.3,33.4L16.3,33.4z M21.1,26.2L5.8,10.9c-0.7-0.7-0.7-1,0-1.7l8.6-8.6c0.2-0.2,0.4-0.4,0.7-0.6h0.5
			c0.2,0.2,0.5,0.4,0.7,0.6C17,1.3,17.7,2,18.5,2.8c0.1,0.1,0.3,0.2,0.4,0.1c1-0.4,2.1-0.7,3.2-1.1C24,1,26,1.1,27.8,1.9
			C29,2.5,30.1,3,31.3,3.6c0.8,0.4,1.6,0.9,2.4,1.3c0.5,0.3,1.1,0.4,1.7,0.4c0.2-0.8,0.3-1,1.1-1h2.1V3.9c0-0.9,0.3-1.1,1.1-1.1H41
			c1,0,2,0,3,0c0.5-0.1,0.9,0.2,1.1,0.6v10.9c-0.2,0.4-0.7,0.6-1.1,0.6c-1.4,0-2.8,0-4.2,0H37c-0.2,0-0.5,0.1-0.6,0.3
			c-1,1.4-2.4,2.4-4.1,2.7C32.1,18,31.7,18,31.4,18c-0.4,0-0.8,0.1-1.1,0.4c-2.6,2.6-5.1,5.2-7.7,7.7c-0.2,0.3-0.5,0.4-0.8,0.5
			C21.5,26.6,21.3,26.4,21.1,26.2L21.1,26.2z M20.1,22.7l1.8,1.8l1.8-1.8C22.5,22,21.2,22,20.1,22.7L20.1,22.7z M24.9,21.5l1.9-1.9
			c-0.8-1.2-1.1-2.7-0.8-4.1l-2.8-0.9c-0.1,0.2-0.1,0.3-0.2,0.5c-0.9,2.4-3.7,3.6-6.1,2.7s-3.6-3.7-2.7-6.1c0.5-1.4,1.7-2.5,3.2-2.9
			c0.2-0.1,0.4-0.2,0.5-0.4C18.3,7.7,19,7.2,19.8,7c0.1,0,0.2-0.1,0.3-0.1l-1.7-1.7l0,0c-1.8,1.2-4.1,1.3-6,0.1c-0.1,0-0.2,0-0.3,0
			c-0.6,0.6-1.2,1.2-1.8,1.7c1.3,1.8,1.3,4.3,0.1,6.1l8.4,8.4c0.9-0.6,1.9-0.9,3-0.9C22.9,20.5,24,20.9,24.9,21.5L24.9,21.5z
			 M27.4,16.8l0.5,1.6l0.9-0.9L27.4,16.8L27.4,16.8z M15.6,14c0.3,1.5,1.7,2.5,3.2,2.4c1.4-0.1,2.5-1.1,2.7-2.4
			c-1.8-0.5-3.7-1.1-4.1-3.4C16.1,11.1,15.3,12.5,15.6,14z M19.3,9.2c-0.4,0.6-0.3,1.5,0.3,2c0.3,0.3,0.7,0.5,1.1,0.7
			c2,0.7,4,1.4,6,2.1c0.3,0.1,0.6,0.3,0.8,0.6c1.2,1.4,3,2,4.8,1.6c1.3-0.4,2.4-1.2,3-2.4c0.1-0.1,0.1-0.2,0.1-0.3V7.3
			c0-0.2-0.1-0.3-0.3-0.3C34,6.9,33,6.6,32,6c-1.7-0.9-3.4-1.8-5.1-2.6c-1.2-0.6-2.5-0.7-3.8-0.3C22,3.5,21,3.9,19.9,4.3
			c1,1,2,2,3,3c0.1,0.1,0.2,0.1,0.4,0.2c1.1,0.4,2.3,0.7,3.4,1.1C27.6,8.8,28.3,9,29,9.3c0.4,0.1,0.6,0.6,0.5,1l0,0
			c-0.1,0.4-0.6,0.6-1,0.5c-0.1,0-0.2-0.1-0.4-0.1c-2.3-0.7-4.7-1.5-7-2.2c-0.2-0.1-0.3-0.1-0.5-0.1C20.1,8.5,19.6,8.8,19.3,9.2
			L19.3,9.2z M40.3,13.2h3.2V4.4h-3.2V13.2z M37.2,13.2h1.4V6h-1.4V13.2z M7.4,10l1.8,1.8c0.7-1.1,0.7-2.5,0-3.6L7.4,10z M13.5,3.8
			c1.1,0.7,2.5,0.7,3.6,0L15.3,2L13.5,3.8z M30.9,11c0-0.4,0.4-0.8,0.8-0.8c0.5,0,0.8,0.3,0.8,0.8s-0.3,0.8-0.8,0.8c0,0,0,0-0.1,0
			l0,0C31.3,11.8,30.9,11.5,30.9,11L30.9,11L30.9,11z" id="Union_61"></path>
	</g>
	<path d="M40,79.5C18.2,79.5,0.5,61.8,0.5,40S18.2,0.5,40,0.5S79.5,18.2,79.5,40S61.8,79.5,40,79.5z M40,1.5
		C18.8,1.5,1.5,18.8,1.5,40S18.8,78.5,40,78.5S78.5,61.2,78.5,40S61.2,1.5,40,1.5z" class="st0"></path>
</g>
<path d="M-38.1-32.1c0,5.3,4.3,9.6,9.6,9.6s9.6-4.3,9.6-9.6s-4.3-9.6-9.6-9.6C-33.8-41.6-38.1-37.4-38.1-32.1L-38.1-32.1z"></path>
</svg>
