<svg xml:space="preserve" style="enable-background:new 0 0 80 80;" viewBox="0 0 80 80" y="0px" x="0px" xmlns:xlink="http://www.w3.org/1999/xlink" xmlns="http://www.w3.org/2000/svg" id="Layer_1" version="1.1">
<style type="text/css">
	.st0{stroke:#000000;stroke-width:0.5;stroke-miterlimit:10;}
</style>
<path d="M38.6,52.9H26.9c-1.6,0-3-1.3-3-3V31.4c0-1.6,1.3-3,3-3h22.9c1.6,0,3,1.3,3,3v12.5
	c-0.5-0.2-1-0.4-1.6-0.5v-12c0-0.8-0.6-1.4-1.4-1.4h-6.3v7.9c0,0.3-0.1,0.5-0.3,0.6c-0.1,0.1-0.3,0.1-0.5,0.1c-0.1,0-0.2,0-0.3,0
	l-4.1-1.5l-4.1,1.5c-0.1,0-0.2,0-0.3,0c-0.2,0-0.3,0-0.4-0.1c-0.2-0.1-0.3-0.4-0.3-0.6V30h-6.3c-0.8,0-1.4,0.6-1.4,1.4v18.5
	c0,0.8,0.6,1.4,1.4,1.4h11.9C38.6,51.8,38.6,52.4,38.6,52.9L38.6,52.9z M38.3,35.5c0.1,0,0.2,0,0.3,0.1l3.3,1.2V30h-7.2v6.8l3.3-1.2
	C38.1,35.5,38.2,35.5,38.3,35.5z" id="Subtraction_3"></path>
<path d="M38.6,53H26.9c-1.7,0-3.1-1.4-3.1-3.1V31.4c0-1.7,1.4-3.1,3.1-3.1h22.9c1.7,0,3.1,1.4,3.1,3.1
	v12.7L52.7,44c-0.5-0.2-1-0.4-1.6-0.5l-0.1,0V31.4c0-0.7-0.6-1.3-1.3-1.3h-6.2v7.8c0,0.3-0.1,0.6-0.4,0.7c-0.2,0.2-0.5,0.2-0.8,0.1
	l-4-1.5l-4.1,1.5c-0.3,0.1-0.6,0.1-0.8-0.1c-0.2-0.2-0.4-0.4-0.4-0.7v-7.8h-6.2c-0.7,0-1.3,0.6-1.3,1.3v18.5c0,0.7,0.6,1.3,1.3,1.3
	h12l0,0.1c-0.1,0.5-0.2,1-0.2,1.6V53L38.6,53z M26.9,28.5c-1.6,0-2.9,1.3-2.9,2.9v18.5c0,1.6,1.3,2.9,2.9,2.9h11.6
	c0-0.5,0.1-0.9,0.1-1.4H26.9c-0.8,0-1.5-0.7-1.5-1.5V31.4c0-0.8,0.7-1.5,1.5-1.5h6.4v8c0,0.2,0.1,0.4,0.3,0.6
	c0.2,0.1,0.4,0.2,0.6,0.1l4.1-1.5l4.1,1.5c0.2,0.1,0.4,0,0.6-0.1c0.2-0.1,0.3-0.3,0.3-0.6v-8h6.4c0.8,0,1.5,0.7,1.5,1.5v11.9
	c0.5,0.1,0.9,0.3,1.4,0.5V31.4c0-1.6-1.3-2.9-2.9-2.9H26.9z M42,36.9l-3.4-1.3c-0.2-0.1-0.3-0.1-0.5,0l-3.4,1.3v-7H42L42,36.9z
	 M34.8,30.1v6.6l3.2-1.2c0.2-0.1,0.4-0.1,0.6,0l3.2,1.2v-6.6H34.8z" id="Subtraction_3_-_Outline"></path>
<path d="M48.9,60.8c-3.1,0-5.9-2-6.9-4.9l-0.1-0.3l-0.3,0.1c-0.1,0-0.2,0-0.3,0c-0.4,0-0.8-0.3-0.8-0.8
	c0-0.2,0-0.3,0.1-0.4l1-1.5c0.1-0.2,0.3-0.3,0.5-0.3c0,0,0.1,0,0.1,0c0.2,0,0.4,0.1,0.5,0.2l1.4,1.1c0.2,0.1,0.3,0.3,0.3,0.5
	c0,0.2,0,0.4-0.2,0.6c-0.1,0.2-0.3,0.2-0.5,0.3l-0.4,0.1l0.2,0.4c1.3,2.9,4.7,4.2,7.7,2.9c2.1-0.9,3.4-3,3.4-5.3
	c0-3.2-2.6-5.8-5.8-5.8c-1.6,0-3.2,0.7-4.2,1.9c-0.3,0.3-0.8,0.3-1.1,0c-0.2-0.1-0.2-0.3-0.3-0.5c0-0.2,0.1-0.4,0.2-0.6
	c2.7-3,7.4-3.2,10.4-0.5c1.5,1.4,2.4,3.3,2.4,5.4C56.2,57.5,52.9,60.8,48.9,60.8z" id="Subtraction_4"></path>
<path d="M48.9,60.9c-3.2,0-6-2-7-5l-0.1-0.2l-0.2,0.1c-0.5,0.2-1-0.1-1.1-0.6
	c-0.1-0.3-0.1-0.5,0.1-0.8l1-1.5c0.3-0.4,0.8-0.5,1.2-0.2c0,0,0,0,0.1,0l1.4,1.1c0.2,0.1,0.3,0.4,0.3,0.6c0,0.2,0,0.5-0.2,0.6
	c-0.1,0.2-0.3,0.3-0.6,0.3l-0.3,0l0.1,0.2c1.3,2.9,4.7,4.2,7.5,2.9c2-0.9,3.3-2.9,3.4-5.2c0-3.1-2.6-5.7-5.7-5.7
	c-1.6,0-3.1,0.7-4.2,1.9c-0.3,0.4-0.9,0.4-1.2,0.1c-0.2-0.2-0.3-0.4-0.3-0.6c0-0.2,0.1-0.5,0.2-0.6c2.8-3,7.5-3.3,10.6-0.5
	c1.5,1.4,2.4,3.4,2.4,5.5C56.3,57.6,53,60.9,48.9,60.9z M41.9,55.5l0.1,0.4c1.4,3.8,5.5,5.7,9.3,4.4c2.9-1,4.8-3.7,4.8-6.8
	c0-4-3.3-7.3-7.3-7.2c-2,0-4,0.9-5.3,2.4c-0.3,0.3-0.2,0.7,0,1c0.1,0.1,0.3,0.2,0.5,0.2c0.2,0,0.4-0.1,0.5-0.2
	c2.2-2.4,5.9-2.6,8.3-0.4c1.2,1.1,1.9,2.7,1.9,4.3c0,3.3-2.7,5.9-5.9,5.9c-2.3,0-4.4-1.4-5.3-3.5l-0.2-0.5l0.5-0.1
	c0.2,0,0.3-0.1,0.4-0.2c0.1-0.1,0.2-0.3,0.1-0.5c0-0.2-0.1-0.3-0.2-0.5L42.7,53c-0.1-0.1-0.3-0.2-0.4-0.2c0,0-0.1,0-0.1,0
	c-0.2,0-0.4,0.1-0.5,0.3l-1,1.5c-0.2,0.3-0.1,0.7,0.2,1c0.2,0.1,0.4,0.1,0.6,0.1L41.9,55.5z" id="Subtraction_4_-_Outline"></path>
<path d="M40,79.5C18.2,79.5,0.5,61.8,0.5,40S18.2,0.5,40,0.5S79.5,18.2,79.5,40S61.8,79.5,40,79.5z M40,1.5
	C18.8,1.5,1.5,18.8,1.5,40S18.8,78.5,40,78.5S78.5,61.2,78.5,40S61.2,1.5,40,1.5z" class="st0"></path>
</svg>
