<svg xml:space="preserve" style="enable-background:new 0 0 80 80;" viewBox="0 0 80 80" y="0px" x="0px" xmlns:xlink="http://www.w3.org/1999/xlink" xmlns="http://www.w3.org/2000/svg" id="Layer_1" version="1.1">
<style type="text/css">
	.st0{stroke:#000000;stroke-width:0.5;stroke-miterlimit:10;}
</style>
<g transform="translate(10836.557 877.923)" id="Group_4015">
	<path d="M-10796.6-813L-10796.6-813l-0.6-0.4c-8.6-5.4-13-10-15.1-15.7c-2.1-5.6-1.9-12.2-1.6-22.2v0l0-1.1
		l1-0.1c6-0.4,11.5-2.3,15.1-5.1c0.2-0.1,0.3-0.3,0.5-0.4l0.7-0.6l0.7,0.6c3.8,3.1,9,5,15.6,5.5l1,0.1l0,1.3
		c0.3,9.9,0.4,16.5-1.6,22.1c-2.1,5.7-6.5,10.2-15.1,15.6L-10796.6-813L-10796.6-813z M-10796.6-855.7L-10796.6-855.7l-0.2,0.2
		c-3.7,2.7-8.8,4.5-14.6,5.2l-0.3,0l0,0.3c-0.3,9.4-0.3,15.4,1.6,20.4c1,2.7,2.6,5.1,4.6,7.1c2.7,2.6,5.6,4.9,8.8,6.9l0.3,0.2
		l0.2-0.2c3.2-1.9,6.1-4.3,8.8-6.9c2-2,3.6-4.4,4.6-7.1c1.9-5,1.8-11,1.5-20.4v-0.3l-0.3,0c-5.9-0.6-10.8-2.4-14.6-5.1
		L-10796.6-855.7L-10796.6-855.7z" id="Subtraction_7"></path>
	<path d="M-10798.8-828.9L-10798.8-828.9l-6.3-6.5l1.5-1.5l4.7,4.9l9.2-9.6l1.6,1.5L-10798.8-828.9
		L-10798.8-828.9z" id="Subtraction_8"></path>
</g>
<path d="M40,79.5C18.2,79.5,0.5,61.8,0.5,40S18.2,0.5,40,0.5S79.5,18.2,79.5,40S61.8,79.5,40,79.5z M40,1.5
	C18.8,1.5,1.5,18.8,1.5,40S18.8,78.5,40,78.5S78.5,61.2,78.5,40S61.2,1.5,40,1.5z" class="st0"></path>
</svg>
